<svg width="20" height="20" viewBox="0 0 20 20" fill="none" xmlns="http://www.w3.org/2000/svg">
<path fill-rule="evenodd" clip-rule="evenodd" d="M6.33761 2.2834C5.87396 2.2834 5.43159 2.478 5.11829 2.81978L4.54604 3.44406H15.4624L14.8902 2.81978C14.5769 2.478 14.1345 2.2834 13.6709 2.2834H6.33761ZM17.0463 5.24406H2.96222C2.83114 5.48488 2.76094 5.75647 2.76094 6.03486V14.896C2.76094 16.2797 3.88267 17.4014 5.26641 17.4014H14.7421C16.1258 17.4014 17.2475 16.2797 17.2475 14.896V6.03486C17.2475 5.75647 17.1773 5.48488 17.0463 5.24406ZM1.80358 3.77408C1.2608 4.40102 0.960938 5.20341 0.960938 6.03486V14.896C0.960938 17.2738 2.88856 19.2014 5.26641 19.2014H14.7421C17.1199 19.2014 19.0475 17.2738 19.0475 14.896V6.03486C19.0475 5.17067 18.7236 4.33788 18.1396 3.70084L16.2171 1.60348C15.5628 0.889761 14.6391 0.483398 13.6709 0.483398H6.33761C5.36941 0.483398 4.44565 0.889762 3.79141 1.60348L1.86883 3.70084C1.86175 3.70856 1.8547 3.71632 1.8477 3.72411C1.83239 3.74021 1.81767 3.75688 1.80358 3.77408ZM10.0042 7.34206C10.5013 7.34206 10.9042 7.74501 10.9042 8.24206V12.5402L12.2569 11.249C12.6165 10.9058 13.1862 10.919 13.5294 11.2786C13.8726 11.6381 13.8593 12.2078 13.4998 12.551L10.6257 15.2945C10.2779 15.6265 9.73059 15.6265 9.38281 15.2945L6.5087 12.551C6.14915 12.2078 6.1359 11.6381 6.47911 11.2786C6.82232 10.919 7.39201 10.9058 7.75156 11.249L9.10423 12.5402V8.24206C9.10423 7.74501 9.50718 7.34206 10.0042 7.34206Z" fill="#111827"/>
</svg>
