<svg width="10" height="11" viewBox="0 0 10 11" fill="none" xmlns="http://www.w3.org/2000/svg">
<path fill-rule="evenodd" clip-rule="evenodd" d="M0.296799 0.792893C0.687324 0.402369 1.32049 0.402369 1.71101 0.792893L5.00391 4.08579L8.2968 0.792893C8.68732 0.402369 9.32049 0.402369 9.71101 0.792893C10.1015 1.18342 10.1015 1.81658 9.71101 2.20711L6.41812 5.5L9.71101 8.79289C10.1015 9.18342 10.1015 9.81658 9.71101 10.2071C9.32049 10.5976 8.68732 10.5976 8.2968 10.2071L5.00391 6.91421L1.71101 10.2071C1.32049 10.5976 0.687324 10.5976 0.296799 10.2071C-0.0937248 9.81658 -0.0937248 9.18342 0.296799 8.79289L3.58969 5.5L0.296799 2.20711C-0.0937248 1.81658 -0.0937248 1.18342 0.296799 0.792893Z" fill="white"/>
</svg>
