<svg width="20" height="15" viewBox="0 0 20 15" fill="none" xmlns="http://www.w3.org/2000/svg">
<path fill-rule="evenodd" clip-rule="evenodd" d="M6.52663 1.91567C5.41442 1.91567 4.48412 2.8426 4.48412 4.02181C4.48412 5.20102 5.41442 6.12796 6.52663 6.12796C7.63883 6.12796 8.56914 5.20102 8.56914 4.02181C8.56914 2.8426 7.63883 1.91567 6.52663 1.91567ZM2.98422 4.02181C2.98422 2.04627 4.55437 0.415771 6.52663 0.415771C8.49888 0.415771 10.069 2.04627 10.069 4.02181C10.069 5.99735 8.49888 7.62785 6.52663 7.62785C4.55437 7.62785 2.98422 5.99735 2.98422 4.02181ZM13.4004 4.2946C12.7623 4.2946 12.2146 4.82945 12.2146 5.5271C12.2146 6.22474 12.7623 6.75959 13.4004 6.75959C14.0386 6.75959 14.5862 6.22474 14.5862 5.5271C14.5862 4.82945 14.0386 4.2946 13.4004 4.2946ZM10.7147 5.5271C10.7147 4.03499 11.9004 2.7947 13.4004 2.7947C14.9004 2.7947 16.0861 4.03499 16.0861 5.5271C16.0861 7.0192 14.9004 8.25949 13.4004 8.25949C11.9004 8.25949 10.7147 7.0192 10.7147 5.5271ZM2.99497 12.1731C2.32967 12.7872 2.07814 13.5072 2.03716 13.9263C1.99686 14.3386 1.63002 14.6401 1.2178 14.5997C0.805578 14.5594 0.504081 14.1926 0.544385 13.7804C0.61976 13.0095 1.03144 11.9444 1.97761 11.071C2.94029 10.1823 4.41002 9.5333 6.52663 9.5333C8.64323 9.5333 10.113 10.1823 11.0756 11.071C12.0218 11.9444 12.4335 13.0095 12.5089 13.7804C12.5492 14.1926 12.2477 14.5594 11.8355 14.5997C11.4232 14.6401 11.0564 14.3386 11.0161 13.9263C10.9751 13.5072 10.7236 12.7872 10.0583 12.1731C9.40948 11.5742 8.31946 11.0332 6.52663 11.0332C4.7338 11.0332 3.64377 11.5742 2.99497 12.1731ZM12.4475 10.2832C12.4475 9.86906 12.7833 9.5333 13.1975 9.5333C15.3141 9.5333 16.7838 10.1823 17.7465 11.071C18.6927 11.9444 19.1044 13.0095 19.1797 13.7804C19.22 14.1926 18.9185 14.5594 18.5063 14.5997C18.0941 14.6401 17.7273 14.3386 17.687 13.9263C17.646 13.5072 17.3945 12.7872 16.7292 12.1731C16.0804 11.5742 14.9903 11.0332 13.1975 11.0332C12.7833 11.0332 12.4475 10.6974 12.4475 10.2832Z" fill="#111827"/>
</svg>
