<svg width="12" height="14" viewBox="0 0 12 14" fill="none" xmlns="http://www.w3.org/2000/svg">
<path fill-rule="evenodd" clip-rule="evenodd" d="M6.00407 1.53749C5.91 1.53749 5.81904 1.54023 5.73109 1.54549C4.56602 1.61517 3.88344 2.12931 3.47652 2.7179C3.05194 3.33205 2.90559 4.06331 2.90559 4.54315V6.59447C2.90559 6.6222 2.90561 6.64958 2.90563 6.67662C2.90598 7.17158 2.90624 7.55387 2.78793 7.91473C2.7638 7.98833 2.73608 8.06063 2.70486 8.13136C2.5518 8.47816 2.29779 8.75755 1.96892 9.1193C1.95095 9.13906 1.93276 9.15907 1.91435 9.17935C1.59708 9.52883 1.39227 9.756 1.26679 9.92912C1.47563 9.95292 1.77705 9.95399 2.24224 9.95399H9.7659C10.2311 9.95399 10.5325 9.95292 10.7413 9.92912C10.6159 9.756 10.4111 9.52883 10.0938 9.17935C10.0754 9.15907 10.0572 9.13906 10.0392 9.11929C9.71034 8.75755 9.45634 8.47816 9.30328 8.13136C9.27206 8.06063 9.24433 7.98833 9.2202 7.91473C9.10189 7.55387 9.10216 7.17158 9.10251 6.67662C9.10252 6.64958 9.10254 6.6222 9.10254 6.59447V4.54315C9.10254 4.06331 8.9562 3.33205 8.53161 2.7179C8.12469 2.12931 7.44211 1.61517 6.27705 1.54549C6.1891 1.54023 6.09814 1.53749 6.00407 1.53749ZM5.66294 0.343287C5.77416 0.336634 5.88785 0.333252 6.00407 0.333252C6.12028 0.333252 6.23398 0.336634 6.34519 0.343287C7.87242 0.434634 8.87863 1.14003 9.48743 2.02064C10.0786 2.87569 10.2749 3.86329 10.2749 4.54315V6.59447C10.2749 7.20948 10.282 7.38021 10.3312 7.53037C10.3428 7.56562 10.356 7.60024 10.371 7.63412C10.4347 7.77842 10.5428 7.90827 10.9512 8.35805L10.9774 8.38692C11.2751 8.71487 11.5363 9.00257 11.7087 9.24782C11.875 9.48453 12.0831 9.84936 11.9738 10.2812C11.944 10.3993 11.8963 10.5119 11.8326 10.6149C11.5997 10.9915 11.198 11.084 10.916 11.1205C10.6239 11.1583 10.2409 11.1583 9.80434 11.1582H2.2038C1.76724 11.1583 1.38426 11.1583 1.09211 11.1205C0.810152 11.084 0.408482 10.9915 0.175518 10.6149C0.111816 10.5119 0.0641643 10.3993 0.0342871 10.2812C-0.0749749 9.84936 0.13312 9.48453 0.299449 9.24782C0.471788 9.00257 0.733007 8.71487 1.03077 8.38691L1.05698 8.35805C1.4653 7.90827 1.57345 7.77842 1.63714 7.63412C1.65209 7.60024 1.66537 7.56562 1.67693 7.53037C1.72616 7.38021 1.73327 7.20948 1.73327 6.59447V4.54315C1.73327 3.86329 1.92957 2.87569 2.52071 2.02064C3.12951 1.14003 4.13572 0.434634 5.66294 0.343287Z" fill="#111827"/>
<path d="M6.00378 13.6669C6.61308 13.6669 7.13123 13.1921 7.3219 12.5299C7.40876 12.2282 7.15185 11.9678 6.84562 11.9678H5.16193C4.8557 11.9678 4.59879 12.2282 4.68565 12.5299C4.87632 13.1921 5.39447 13.6669 6.00378 13.6669Z" fill="#111827"/>
</svg>
