<svg width="53" height="53" viewBox="0 0 53 53" fill="none" xmlns="http://www.w3.org/2000/svg">
<path fill-rule="evenodd" clip-rule="evenodd" d="M26.5039 52.5029C40.8088 52.5029 52.4053 40.9065 52.4053 26.6016C52.4053 12.2966 40.8088 0.700195 26.5039 0.700195C12.199 0.700195 0.602539 12.2966 0.602539 26.6016C0.602539 40.9065 12.199 52.5029 26.5039 52.5029ZM28.354 15.501C28.354 14.4792 27.5257 13.6509 26.5039 13.6509C25.4821 13.6509 24.6538 14.4792 24.6538 15.501V24.7515H15.4033C14.3815 24.7515 13.5532 25.5798 13.5532 26.6016C13.5532 27.6233 14.3815 28.4517 15.4033 28.4517H24.6538V37.7021C24.6538 38.7239 25.4821 39.5522 26.5039 39.5522C27.5257 39.5522 28.354 38.7239 28.354 37.7021V28.4517H37.6045C38.6263 28.4517 39.4546 27.6233 39.4546 26.6016C39.4546 25.5798 38.6263 24.7515 37.6045 24.7515H28.354V15.501Z" fill="#111827"/>
</svg>
