<svg width="16" height="17" viewBox="0 0 16 17" fill="none" xmlns="http://www.w3.org/2000/svg">
<path d="M7.01908 17C6.71592 17 6.4541 16.8987 6.23362 16.6962C6.01299 16.4939 5.87874 16.2447 5.83088 15.9487L5.61374 14.2744C5.37563 14.1942 5.13144 14.0818 4.88117 13.9373C4.63106 13.7927 4.40739 13.6378 4.21018 13.4727L2.6697 14.1317C2.3904 14.2556 2.10976 14.2676 1.82779 14.1677C1.54567 14.0679 1.32652 13.8868 1.17035 13.6242L0.168404 11.8758C0.01223 11.6132 -0.0327404 11.3353 0.0334927 11.0422C0.0995776 10.7491 0.251158 10.5074 0.488234 10.317L1.82001 9.31041C1.79956 9.17739 1.78504 9.04378 1.77644 8.90957C1.76785 8.77536 1.76355 8.64167 1.76355 8.5085C1.76355 8.3813 1.76785 8.25201 1.77644 8.12063C1.78504 7.98925 1.79956 7.84558 1.82001 7.68959L0.488234 6.68301C0.251158 6.49258 0.100985 6.24936 0.0377157 5.95336C-0.0255539 5.6575 0.020898 5.37819 0.177072 5.11543L1.17035 3.39307C1.32652 3.13613 1.54567 2.95636 1.82779 2.85376C2.10976 2.75102 2.3904 2.76161 2.6697 2.88553L4.20151 3.536C4.41591 3.36511 4.64476 3.20882 4.88806 3.06716C5.13136 2.92549 5.37044 2.81164 5.60529 2.72559L5.83088 1.05132C5.87874 0.755307 6.01299 0.506123 6.23362 0.303764C6.4541 0.101255 6.71592 0 7.01908 0H8.98873C9.29189 0 9.55372 0.101255 9.7742 0.303764C9.99482 0.506123 10.1291 0.755307 10.1769 1.05132L10.3941 2.73409C10.6608 2.83162 10.9021 2.94547 11.118 3.07566C11.334 3.20584 11.552 3.35929 11.7721 3.536L13.3468 2.88553C13.6259 2.76161 13.9066 2.75102 14.1887 2.85376C14.4708 2.95636 14.6899 3.13613 14.8459 3.39307L15.8394 5.12416C15.9956 5.38676 16.0406 5.66465 15.9743 5.95783C15.9082 6.25085 15.7567 6.49258 15.5196 6.68301L14.1536 7.71532C14.1854 7.85982 14.2028 7.99492 14.2058 8.12063C14.2086 8.24619 14.21 8.37265 14.21 8.5C14.21 8.62154 14.2071 8.74516 14.2014 8.87087C14.1957 8.99643 14.1753 9.14011 14.14 9.30191L15.4802 10.317C15.7173 10.5074 15.8704 10.7491 15.9394 11.0422C16.0083 11.3353 15.9647 11.6132 15.8085 11.8758L14.8015 13.6154C14.6454 13.8782 14.425 14.0594 14.14 14.1592C13.8551 14.259 13.573 14.2469 13.2937 14.123L11.7721 13.464C11.552 13.6407 11.3275 13.797 11.0984 13.9328C10.8693 14.0688 10.6346 14.1799 10.3941 14.2659L10.1769 15.9487C10.1291 16.2447 9.99482 16.4939 9.7742 16.6962C9.55372 16.8987 9.29189 17 8.98873 17H7.01908ZM7.11487 15.6579H8.86227L9.18188 13.2611C9.63558 13.1418 10.0502 12.9723 10.4256 12.7527C10.8013 12.5329 11.1635 12.2504 11.5123 11.9051L13.7211 12.8395L14.5965 11.3184L12.668 9.85597C12.7421 9.62424 12.7925 9.39705 12.8191 9.17441C12.846 8.95192 12.8594 8.72711 12.8594 8.5C12.8594 8.26707 12.846 8.04227 12.8191 7.82559C12.7925 7.60877 12.7421 7.38732 12.668 7.16125L14.6134 5.68158L13.7382 4.16053L11.5036 5.1085C11.2061 4.78848 10.8496 4.50575 10.4343 4.26029C10.0188 4.01483 9.59854 3.84103 9.17343 3.73888L8.89294 1.34211H7.12865L6.83438 3.73038C6.38083 3.8382 5.96202 4.00335 5.57795 4.22584C5.19374 4.44848 4.82724 4.73525 4.47844 5.08613L2.26964 4.16053L1.39438 5.68158L3.31425 7.12166C3.24016 7.33401 3.1883 7.55486 3.15867 7.78421C3.12904 8.01356 3.11422 8.25499 3.11422 8.5085C3.11422 8.74143 3.12904 8.96974 3.15867 9.19342C3.1883 9.41711 3.23735 9.63796 3.30581 9.85597L1.39438 11.3184L2.26964 12.8395L4.47 11.9C4.80738 12.2486 5.16811 12.5343 5.55217 12.7569C5.93638 12.9794 6.36097 13.1503 6.82594 13.2696L7.11487 15.6579ZM8.01413 11.1842C8.75381 11.1842 9.38324 10.9229 9.90244 10.4004C10.4216 9.87789 10.6812 9.24442 10.6812 8.5C10.6812 7.75558 10.4216 7.12211 9.90244 6.59958C9.38324 6.07705 8.75381 5.81579 8.01413 5.81579C7.26527 5.81579 6.63353 6.07705 6.11893 6.59958C5.60433 7.12211 5.34703 7.75558 5.34703 8.5C5.34703 9.24442 5.60433 9.87789 6.11893 10.4004C6.63353 10.9229 7.26527 11.1842 8.01413 11.1842Z" fill="black"/>
</svg>
