<svg width="14" height="14" viewBox="0 0 14 14" fill="none" xmlns="http://www.w3.org/2000/svg">
<path d="M6.00391 6.5H6.50391V6V1C6.50391 0.723857 6.72776 0.5 7.00391 0.5C7.28005 0.5 7.50391 0.723857 7.50391 1V6V6.5H8.00391H13.0039C13.28 6.5 13.5039 6.72386 13.5039 7C13.5039 7.27614 13.28 7.5 13.0039 7.5H8.00391H7.50391V8V13C7.50391 13.2761 7.28005 13.5 7.00391 13.5C6.72776 13.5 6.50391 13.2761 6.50391 13V8V7.5H6.00391H1.00391C0.727764 7.5 0.503906 7.27614 0.503906 7C0.503906 6.72386 0.727764 6.5 1.00391 6.5H6.00391Z" fill="white" stroke="black"/>
</svg>
