<svg width="18" height="18" viewBox="0 0 18 18" fill="none" xmlns="http://www.w3.org/2000/svg">
<path fill-rule="evenodd" clip-rule="evenodd" d="M8.2932 1.47162C4.43371 1.82933 1.42531 5.07119 1.42531 9C1.42531 13.1669 4.80945 16.5611 9.00391 16.5611C12.9542 16.5611 16.1857 13.5507 16.5486 9.71943L10.7915 9.71943C10.3965 9.71948 10.032 9.71953 9.735 9.67911C9.40709 9.63448 9.05732 9.52905 8.76929 9.23749C8.48127 8.94593 8.37712 8.59187 8.33303 8.25993C8.29311 7.95931 8.29315 7.59033 8.2932 7.19049C8.2932 7.17636 8.2932 7.16219 8.2932 7.14799V1.47162ZM9.71461 1.47162V7.14799C9.71461 7.60485 9.71612 7.87512 9.74176 8.0682C9.75379 8.15876 9.76772 8.20169 9.77533 8.2191C9.79253 8.2268 9.83495 8.24091 9.9244 8.25309C10.1151 8.27904 10.3821 8.28057 10.8335 8.28057H16.5486C16.2077 4.68182 13.3358 1.80724 9.71461 1.47162ZM9.76543 8.21336C9.76575 8.21323 9.76804 8.21439 9.77132 8.2172C9.76675 8.21489 9.76511 8.21349 9.76543 8.21336ZM9.77721 8.22317C9.77999 8.22648 9.78113 8.2288 9.78101 8.22913C9.78088 8.22946 9.77949 8.2278 9.77721 8.22317ZM0.00390625 9C0.00390625 4.02048 4.04225 0 9.00391 0C13.9656 0 18.0039 4.02048 18.0039 9C18.0039 13.9795 13.9656 18 9.00391 18C4.04225 18 0.00390625 13.9795 0.00390625 9Z" fill="#111827"/>
</svg>
