<svg width="18" height="20" viewBox="0 0 18 20" fill="none" xmlns="http://www.w3.org/2000/svg">
<path fill-rule="evenodd" clip-rule="evenodd" d="M8.87352 0.0560005C8.91646 0.0560479 8.95991 0.056096 9.00387 0.056096C9.04782 0.056096 9.09127 0.0560479 9.13422 0.0560005C9.75681 0.0553122 10.2743 0.0547401 10.7196 0.202292C11.5409 0.474454 12.1982 1.10442 12.4865 1.92195C12.5862 2.2049 12.6221 2.5169 12.6348 2.86093H16.7186C17.2156 2.86093 17.6186 3.26387 17.6186 3.76093C17.6186 4.25799 17.2156 4.66093 16.7186 4.66093H1.28916C0.792104 4.66093 0.38916 4.25799 0.38916 3.76093C0.38916 3.26387 0.792104 2.86093 1.28916 2.86093H5.37293C5.38563 2.5169 5.42151 2.20489 5.52126 1.92194C5.80949 1.10442 6.46688 0.474454 7.28815 0.202292C7.7334 0.0547401 8.25092 0.0553122 8.87352 0.0560005ZM7.17525 2.86093H10.8325C10.8246 2.66351 10.8109 2.58277 10.7889 2.52044C10.6911 2.24305 10.4614 2.01301 10.1534 1.91091C10.0227 1.86763 9.82842 1.8561 9.00387 1.8561C8.17932 1.8561 7.98499 1.86763 7.85437 1.91091C7.5463 2.01301 7.31665 2.24305 7.21885 2.52044C7.19688 2.58277 7.18313 2.66351 7.17525 2.86093ZM2.62512 5.67258C3.11841 5.61152 3.5678 5.96192 3.62885 6.45521L4.56563 14.0238C4.69232 15.0473 4.77944 15.7403 4.90522 16.264C5.02605 16.7671 5.16173 17.0159 5.32632 17.1904C5.41923 17.2889 5.52294 17.3782 5.63589 17.4566C5.84016 17.5983 6.12123 17.7022 6.6603 17.7596C7.21701 17.8189 7.94235 17.82 9.00387 17.82C10.0654 17.82 10.7907 17.8189 11.3474 17.7596C11.8865 17.7022 12.1676 17.5983 12.3718 17.4566C12.4848 17.3782 12.5885 17.2889 12.6814 17.1904C12.846 17.0159 12.9817 16.7671 13.1025 16.264C13.2283 15.7403 13.3154 15.0473 13.4421 14.0238L14.3789 6.45521C14.4399 5.96192 14.8893 5.61152 15.3826 5.67258C15.8759 5.73364 16.2263 6.18302 16.1653 6.67632L15.2222 14.2959C15.1034 15.2555 15.0051 16.0501 14.8527 16.6844C14.6928 17.3504 14.453 17.9354 13.9909 18.4254C13.8118 18.6153 13.613 18.7862 13.3981 18.9354C12.8472 19.3177 12.2297 19.4758 11.538 19.5495C10.8748 19.6201 10.0532 19.6201 9.05303 19.62H8.9547C7.95455 19.6201 7.13298 19.6201 6.46976 19.5495C5.77807 19.4758 5.16056 19.3177 4.60965 18.9354C4.39472 18.7862 4.19597 18.6153 4.01679 18.4254C3.55471 17.9354 3.31498 17.3504 3.155 16.6844C3.00266 16.0501 2.90433 15.2555 2.78558 14.2959L1.84248 6.67632C1.78143 6.18302 2.13182 5.73364 2.62512 5.67258Z" fill="#E43147"/>
</svg>
